<svg width="18" height="18" viewBox="0 0 18 18" fill="none" xmlns="http://www.w3.org/2000/svg">
<path d="M9.84914 1.78393C9.95243 1.6537 10.0961 1.56148 10.2575 1.52175C10.4188 1.48201 10.5889 1.49702 10.7408 1.5644C10.8927 1.63179 11.018 1.74774 11.0969 1.89404C11.1758 2.04034 11.2038 2.2087 11.1766 2.37268L10.3854 7.12468H13.2496C13.3906 7.12465 13.5288 7.16436 13.6482 7.23926C13.7677 7.31416 13.8636 7.4212 13.925 7.54813C13.9863 7.67505 14.0107 7.8167 13.9953 7.95684C13.9798 8.09697 13.9252 8.22992 13.8376 8.34043L7.89989 15.8404C7.7966 15.9707 7.65298 16.0629 7.49158 16.1026C7.33019 16.1423 7.16017 16.1273 7.00823 16.06C6.85629 15.9926 6.73103 15.8766 6.65215 15.7303C6.57326 15.584 6.54521 15.4157 6.57239 15.2517L7.36364 10.4997H4.49939C4.35847 10.4996 4.22043 10.4597 4.1011 10.3848C3.98176 10.3098 3.88595 10.2028 3.82466 10.0759C3.76337 9.949 3.73906 9.8074 3.75453 9.66733C3.77001 9.52726 3.82463 9.39438 3.91214 9.28393L9.84914 1.78393Z" fill="#FEFCE1"/>
</svg>
